# xmcd
#
# Track frame offsets: 
#        150
#        15282
#        29185
#        44929
#        61520
#        78366
#        92465
#        108248
#        123384
#        139494
#        152091
#
# Disc length: 2215 seconds
#
# Revision: 3
# Processed by: cddbd v1.5.2PL0 Copyright (c) Steve Scherf et al.
# Submitted via: ExactAudioCopy v1.0b1
#
DISCID=8b08a50b
DTITLE=Janie Fricke - Janie Fricke
DYEAR=1900
DGENRE=Country
TTITLE0=You Never Crossed My Mind
TTITLE1=Independence Day
TTITLE2=What Do I Do (With All This Love)
TTITLE3=Humbling Love
TTITLE4=Greater Than Love
TTITLE5=Love Letters
TTITLE6=I Want To Grow Old With You
TTITLE7=I Know A Good Love (When I Lose One)
TTITLE8=Old Feeling 'Bout A New Love
TTITLE9=I'd Like To Know How You Got The Know-How
TTITLE10=Finishing Touch
EXTD=
EXTT0=
EXTT1=
EXTT2=
EXTT3=
EXTT4=
EXTT5=
EXTT6=
EXTT7=
EXTT8=
EXTT9=
EXTT10=
PLAYORDER=
